<mxfile host="app.diagrams.net" modified="2022-03-10T15:07:30.466Z" agent="5.0 (Windows NT 10.0; Win64; x64) AppleWebKit/537.36 (KHTML, like Gecko) Chrome/83.0.4103.106 Safari/537.36" etag="Ej-beYA5R4qvXGyk1TzE" version="16.6.6" type="github">
  <diagram id="kcNKMiewppADuIH7yyTz" name="Page-1">
    <mxGraphModel dx="3987" dy="2829" grid="1" gridSize="10" guides="1" tooltips="1" connect="1" arrows="1" fold="1" page="1" pageScale="1" pageWidth="827" pageHeight="1169" math="0" shadow="0">
      <root>
        <mxCell id="0" />
        <mxCell id="1" parent="0" />
        <mxCell id="lCQ43jmw5x8bFt2D_N49-5" value="" style="rounded=0;whiteSpace=wrap;html=1;fontColor=#FF3333;fillColor=default;" vertex="1" parent="1">
          <mxGeometry x="-624.78" y="-244.75" width="1255.51" height="1255.51" as="geometry" />
        </mxCell>
        <mxCell id="lCQ43jmw5x8bFt2D_N49-4" style="edgeStyle=orthogonalEdgeStyle;rounded=0;orthogonalLoop=1;jettySize=auto;html=1;entryX=1;entryY=0.5;entryDx=0;entryDy=0;fontColor=#FF3333;strokeColor=#6C8EBF;strokeWidth=3;" edge="1" parent="1" source="zqrA5iGKFldwItwEDeDW-22" target="zqrA5iGKFldwItwEDeDW-53">
          <mxGeometry relative="1" as="geometry">
            <Array as="points">
              <mxPoint x="370" y="386" />
            </Array>
          </mxGeometry>
        </mxCell>
        <mxCell id="zqrA5iGKFldwItwEDeDW-22" value="" style="rounded=1;whiteSpace=wrap;html=1;fontSize=15;fontColor=#000;dashed=1;strokeColor=default;strokeWidth=2;" parent="1" vertex="1">
          <mxGeometry x="177.97" y="-47" width="370" height="307" as="geometry" />
        </mxCell>
        <mxCell id="zqrA5iGKFldwItwEDeDW-71" style="edgeStyle=none;rounded=0;orthogonalLoop=1;jettySize=auto;html=1;entryX=0.002;entryY=0.375;entryDx=0;entryDy=0;fontSize=15;fontColor=#000;startArrow=none;startFill=0;endArrow=classic;endFill=1;strokeWidth=1;entryPerimeter=0;" parent="1" source="zqrA5iGKFldwItwEDeDW-20" target="zqrA5iGKFldwItwEDeDW-22" edge="1">
          <mxGeometry relative="1" as="geometry" />
        </mxCell>
        <mxCell id="zqrA5iGKFldwItwEDeDW-20" value="" style="rounded=1;whiteSpace=wrap;html=1;fontSize=15;fontColor=#000;dashed=1;strokeColor=default;strokeWidth=2;" parent="1" vertex="1">
          <mxGeometry x="-537.03" y="-47" width="370" height="230" as="geometry" />
        </mxCell>
        <mxCell id="zqrA5iGKFldwItwEDeDW-3" value="" style="rounded=0;orthogonalLoop=1;jettySize=auto;html=1;fontSize=16;fontColor=#000;fillColor=#d5e8d4;strokeColor=#82b366;entryX=0.5;entryY=0;entryDx=0;entryDy=0;exitX=0.25;exitY=1;exitDx=0;exitDy=0;" parent="1" source="zqrA5iGKFldwItwEDeDW-1" target="zqrA5iGKFldwItwEDeDW-2" edge="1">
          <mxGeometry relative="1" as="geometry" />
        </mxCell>
        <mxCell id="zqrA5iGKFldwItwEDeDW-1" value="&lt;font color=&quot;#000000&quot;&gt;Client&lt;/font&gt;" style="rounded=1;whiteSpace=wrap;html=1;fontStyle=0;fontSize=16;fillColor=#d5e8d4;strokeColor=#82b366;" parent="1" vertex="1">
          <mxGeometry x="-412.03" y="-22" width="120" height="60" as="geometry" />
        </mxCell>
        <mxCell id="zqrA5iGKFldwItwEDeDW-5" value="" style="edgeStyle=none;rounded=0;orthogonalLoop=1;jettySize=auto;html=1;fontSize=16;fontColor=#000;strokeWidth=1;startArrow=classic;startFill=1;fillColor=#d5e8d4;strokeColor=#82b366;" parent="1" source="zqrA5iGKFldwItwEDeDW-2" target="zqrA5iGKFldwItwEDeDW-4" edge="1">
          <mxGeometry relative="1" as="geometry" />
        </mxCell>
        <mxCell id="lCQ43jmw5x8bFt2D_N49-1" style="rounded=0;orthogonalLoop=1;jettySize=auto;html=1;exitX=0.75;exitY=0;exitDx=0;exitDy=0;entryX=0.5;entryY=1;entryDx=0;entryDy=0;strokeColor=#FF3333;" edge="1" parent="1" source="zqrA5iGKFldwItwEDeDW-2" target="zqrA5iGKFldwItwEDeDW-1">
          <mxGeometry relative="1" as="geometry" />
        </mxCell>
        <mxCell id="zqrA5iGKFldwItwEDeDW-2" value="&lt;font color=&quot;#000000&quot; style=&quot;font-size: 15px;&quot;&gt;MySQL A&lt;br style=&quot;font-size: 15px;&quot;&gt;&lt;/font&gt;" style="rounded=1;whiteSpace=wrap;html=1;fontStyle=0;fontSize=15;fillColor=#d5e8d4;strokeColor=#82b366;" parent="1" vertex="1">
          <mxGeometry x="-512.03" y="88" width="120" height="60" as="geometry" />
        </mxCell>
        <mxCell id="zqrA5iGKFldwItwEDeDW-11" value="" style="edgeStyle=none;rounded=0;orthogonalLoop=1;jettySize=auto;html=1;fontSize=15;fontColor=#000;startArrow=classic;startFill=1;strokeWidth=2;fillColor=#d5e8d4;strokeColor=#82b366;" parent="1" source="zqrA5iGKFldwItwEDeDW-4" target="zqrA5iGKFldwItwEDeDW-2" edge="1">
          <mxGeometry relative="1" as="geometry" />
        </mxCell>
        <mxCell id="zqrA5iGKFldwItwEDeDW-4" value="&lt;font color=&quot;#000000&quot; style=&quot;font-size: 15px;&quot;&gt;MySQL B&lt;br style=&quot;font-size: 15px;&quot;&gt;&lt;/font&gt;" style="rounded=1;whiteSpace=wrap;html=1;fontStyle=0;fontSize=15;fillColor=#d5e8d4;strokeColor=#82b366;" parent="1" vertex="1">
          <mxGeometry x="-312.03" y="88" width="120" height="60" as="geometry" />
        </mxCell>
        <mxCell id="zqrA5iGKFldwItwEDeDW-12" value="write trx1" style="text;html=1;strokeColor=none;fillColor=none;align=center;verticalAlign=middle;whiteSpace=wrap;rounded=0;fontSize=15;fontColor=#82B366;" parent="1" vertex="1">
          <mxGeometry x="-486.05999999999995" y="40" width="82.03" height="32" as="geometry" />
        </mxCell>
        <mxCell id="zqrA5iGKFldwItwEDeDW-13" value="" style="rounded=0;orthogonalLoop=1;jettySize=auto;html=1;fontSize=16;fontColor=#000;fillColor=#dae8fc;strokeColor=#6c8ebf;entryX=0.5;entryY=0;entryDx=0;entryDy=0;" parent="1" source="zqrA5iGKFldwItwEDeDW-14" target="zqrA5iGKFldwItwEDeDW-18" edge="1">
          <mxGeometry relative="1" as="geometry" />
        </mxCell>
        <mxCell id="zqrA5iGKFldwItwEDeDW-14" value="&lt;font color=&quot;#000000&quot;&gt;Client&lt;/font&gt;" style="rounded=1;whiteSpace=wrap;html=1;fontStyle=0;fontSize=16;fillColor=#dae8fc;strokeColor=#6c8ebf;" parent="1" vertex="1">
          <mxGeometry x="327.97" y="-27" width="120" height="60" as="geometry" />
        </mxCell>
        <mxCell id="zqrA5iGKFldwItwEDeDW-15" value="" style="edgeStyle=none;rounded=0;orthogonalLoop=1;jettySize=auto;html=1;fontSize=16;fontColor=#000;strokeWidth=1;startArrow=classic;startFill=1;fillColor=#dae8fc;strokeColor=#6c8ebf;" parent="1" source="zqrA5iGKFldwItwEDeDW-16" target="zqrA5iGKFldwItwEDeDW-18" edge="1">
          <mxGeometry relative="1" as="geometry" />
        </mxCell>
        <mxCell id="zqrA5iGKFldwItwEDeDW-16" value="&lt;font color=&quot;#000000&quot; style=&quot;font-size: 15px;&quot;&gt;MySQL A&lt;br style=&quot;font-size: 15px;&quot;&gt;&lt;/font&gt;" style="rounded=1;whiteSpace=wrap;html=1;fontStyle=0;fontSize=15;fillColor=#dae8fc;strokeColor=#6c8ebf;" parent="1" vertex="1">
          <mxGeometry x="187.97000000000003" y="93" width="120" height="60" as="geometry" />
        </mxCell>
        <mxCell id="zqrA5iGKFldwItwEDeDW-17" value="" style="edgeStyle=none;rounded=0;orthogonalLoop=1;jettySize=auto;html=1;fontSize=15;fontColor=#000;startArrow=classic;startFill=1;strokeWidth=2;fillColor=#dae8fc;strokeColor=#6c8ebf;" parent="1" source="zqrA5iGKFldwItwEDeDW-18" target="zqrA5iGKFldwItwEDeDW-16" edge="1">
          <mxGeometry relative="1" as="geometry" />
        </mxCell>
        <mxCell id="zqrA5iGKFldwItwEDeDW-18" value="&lt;font color=&quot;#000000&quot; style=&quot;font-size: 15px;&quot;&gt;MySQL B&lt;br style=&quot;font-size: 15px;&quot;&gt;&lt;/font&gt;" style="rounded=1;whiteSpace=wrap;html=1;fontStyle=0;fontSize=15;fillColor=#dae8fc;strokeColor=#6c8ebf;" parent="1" vertex="1">
          <mxGeometry x="407.97" y="93" width="120" height="60" as="geometry" />
        </mxCell>
        <mxCell id="zqrA5iGKFldwItwEDeDW-23" value="select wait_for_executed_gtid_set(&lt;font color=&quot;#ff3333&quot;&gt;gtid1&lt;/font&gt;,1);" style="text;html=1;strokeColor=none;fillColor=none;align=center;verticalAlign=middle;whiteSpace=wrap;rounded=0;dashed=1;fontSize=15;fontColor=#6C8EBF;" parent="1" vertex="1">
          <mxGeometry x="214.46000000000004" y="58" width="347.03" height="20" as="geometry" />
        </mxCell>
        <mxCell id="zqrA5iGKFldwItwEDeDW-34" value="relay log&lt;br&gt;trx 1" style="rounded=1;whiteSpace=wrap;html=1;dashed=1;fontSize=15;strokeColor=#666666;strokeWidth=2;fillColor=#f5f5f5;fontColor=#333333;" parent="1" vertex="1">
          <mxGeometry x="407.97" y="170" width="120" height="60" as="geometry" />
        </mxCell>
        <mxCell id="zqrA5iGKFldwItwEDeDW-36" value="" style="rounded=1;whiteSpace=wrap;html=1;fontSize=15;fontColor=#000;dashed=1;strokeColor=default;strokeWidth=2;" parent="1" vertex="1">
          <mxGeometry x="-552.03" y="270" width="400" height="295" as="geometry" />
        </mxCell>
        <mxCell id="zqrA5iGKFldwItwEDeDW-37" value="" style="rounded=0;orthogonalLoop=1;jettySize=auto;html=1;fontSize=16;fontColor=#000;fillColor=#d5e8d4;strokeColor=#82b366;entryX=0.5;entryY=0;entryDx=0;entryDy=0;" parent="1" source="zqrA5iGKFldwItwEDeDW-38" target="zqrA5iGKFldwItwEDeDW-42" edge="1">
          <mxGeometry relative="1" as="geometry" />
        </mxCell>
        <mxCell id="zqrA5iGKFldwItwEDeDW-38" value="&lt;font color=&quot;#000000&quot;&gt;Client&lt;/font&gt;" style="rounded=1;whiteSpace=wrap;html=1;fontStyle=0;fontSize=16;fillColor=#d5e8d4;strokeColor=#82b366;" parent="1" vertex="1">
          <mxGeometry x="-402.03" y="293" width="120" height="60" as="geometry" />
        </mxCell>
        <mxCell id="zqrA5iGKFldwItwEDeDW-39" value="" style="edgeStyle=none;rounded=0;orthogonalLoop=1;jettySize=auto;html=1;fontSize=16;fontColor=#000;strokeWidth=1;startArrow=classic;startFill=1;fillColor=#d5e8d4;strokeColor=#82b366;" parent="1" source="zqrA5iGKFldwItwEDeDW-40" target="zqrA5iGKFldwItwEDeDW-42" edge="1">
          <mxGeometry relative="1" as="geometry" />
        </mxCell>
        <mxCell id="zqrA5iGKFldwItwEDeDW-40" value="&lt;font color=&quot;#000000&quot; style=&quot;font-size: 15px;&quot;&gt;MySQL A&lt;br style=&quot;font-size: 15px;&quot;&gt;&lt;/font&gt;" style="rounded=1;whiteSpace=wrap;html=1;fontStyle=0;fontSize=15;fillColor=#d5e8d4;strokeColor=#82b366;" parent="1" vertex="1">
          <mxGeometry x="-542.03" y="413" width="120" height="60" as="geometry" />
        </mxCell>
        <mxCell id="zqrA5iGKFldwItwEDeDW-41" value="" style="edgeStyle=none;rounded=0;orthogonalLoop=1;jettySize=auto;html=1;fontSize=15;fontColor=#000;startArrow=classic;startFill=1;strokeWidth=2;fillColor=#d5e8d4;strokeColor=#82b366;" parent="1" source="zqrA5iGKFldwItwEDeDW-42" target="zqrA5iGKFldwItwEDeDW-40" edge="1">
          <mxGeometry relative="1" as="geometry" />
        </mxCell>
        <mxCell id="zqrA5iGKFldwItwEDeDW-42" value="&lt;font color=&quot;#000000&quot; style=&quot;font-size: 15px;&quot;&gt;MySQL B&lt;br style=&quot;font-size: 15px;&quot;&gt;&lt;/font&gt;" style="rounded=1;whiteSpace=wrap;html=1;fontStyle=0;fontSize=15;fillColor=#d5e8d4;strokeColor=#82b366;" parent="1" vertex="1">
          <mxGeometry x="-322.03" y="413" width="120" height="60" as="geometry" />
        </mxCell>
        <mxCell id="zqrA5iGKFldwItwEDeDW-43" value="select real_query" style="text;html=1;strokeColor=none;fillColor=none;align=center;verticalAlign=middle;whiteSpace=wrap;rounded=0;dashed=1;fontSize=15;" parent="1" vertex="1">
          <mxGeometry x="-380.53" y="368" width="155" height="30" as="geometry" />
        </mxCell>
        <mxCell id="zqrA5iGKFldwItwEDeDW-44" value="relay log&lt;br&gt;trx 1&lt;br&gt;trx 2" style="rounded=1;whiteSpace=wrap;html=1;dashed=1;fontSize=15;fontColor=#000;strokeColor=default;strokeWidth=2;" parent="1" vertex="1">
          <mxGeometry x="-344.03" y="485" width="82" height="70" as="geometry" />
        </mxCell>
        <mxCell id="zqrA5iGKFldwItwEDeDW-45" value="binlog&lt;br&gt;trx1" style="rounded=1;whiteSpace=wrap;html=1;dashed=1;fontSize=15;fontColor=#000;strokeColor=default;strokeWidth=2;" parent="1" vertex="1">
          <mxGeometry x="-254.02999999999997" y="485" width="82" height="50" as="geometry" />
        </mxCell>
        <mxCell id="zqrA5iGKFldwItwEDeDW-56" style="edgeStyle=none;rounded=0;orthogonalLoop=1;jettySize=auto;html=1;fontSize=15;fontColor=#000;startArrow=none;startFill=0;endArrow=classic;endFill=1;strokeWidth=1;" parent="1" source="zqrA5iGKFldwItwEDeDW-69" target="zqrA5iGKFldwItwEDeDW-43" edge="1">
          <mxGeometry relative="1" as="geometry" />
        </mxCell>
        <mxCell id="zqrA5iGKFldwItwEDeDW-53" value="查询返回 0&amp;nbsp;" style="rhombus;whiteSpace=wrap;html=1;dashed=1;fontSize=15;fontColor=#000;strokeColor=default;strokeWidth=2;" parent="1" vertex="1">
          <mxGeometry x="-126.89999999999998" y="330.82" width="258.75" height="109.37" as="geometry" />
        </mxCell>
        <mxCell id="zqrA5iGKFldwItwEDeDW-58" value="" style="rounded=1;whiteSpace=wrap;html=1;fontSize=15;fontColor=#000;dashed=1;strokeColor=default;strokeWidth=2;" parent="1" vertex="1">
          <mxGeometry x="-197.02999999999997" y="606" width="400" height="295" as="geometry" />
        </mxCell>
        <mxCell id="zqrA5iGKFldwItwEDeDW-59" value="" style="rounded=0;orthogonalLoop=1;jettySize=auto;html=1;fontSize=16;fontColor=#000;fillColor=#d5e8d4;strokeColor=#82b366;entryX=0.5;entryY=0;entryDx=0;entryDy=0;" parent="1" source="zqrA5iGKFldwItwEDeDW-60" target="zqrA5iGKFldwItwEDeDW-62" edge="1">
          <mxGeometry relative="1" as="geometry" />
        </mxCell>
        <mxCell id="zqrA5iGKFldwItwEDeDW-60" value="&lt;font color=&quot;#000000&quot;&gt;Client&lt;/font&gt;" style="rounded=1;whiteSpace=wrap;html=1;fontStyle=0;fontSize=16;fillColor=#d5e8d4;strokeColor=#82b366;" parent="1" vertex="1">
          <mxGeometry x="-47.52999999999997" y="628" width="120" height="60" as="geometry" />
        </mxCell>
        <mxCell id="zqrA5iGKFldwItwEDeDW-61" value="" style="edgeStyle=none;rounded=0;orthogonalLoop=1;jettySize=auto;html=1;fontSize=16;fontColor=#000;strokeWidth=1;startArrow=classic;startFill=1;fillColor=#d5e8d4;strokeColor=#82b366;" parent="1" source="zqrA5iGKFldwItwEDeDW-62" target="zqrA5iGKFldwItwEDeDW-64" edge="1">
          <mxGeometry relative="1" as="geometry" />
        </mxCell>
        <mxCell id="zqrA5iGKFldwItwEDeDW-62" value="&lt;font color=&quot;#000000&quot; style=&quot;font-size: 15px;&quot;&gt;MySQL A&lt;br style=&quot;font-size: 15px;&quot;&gt;&lt;/font&gt;" style="rounded=1;whiteSpace=wrap;html=1;fontStyle=0;fontSize=15;fillColor=#d5e8d4;strokeColor=#82b366;" parent="1" vertex="1">
          <mxGeometry x="-187.52999999999997" y="748" width="120" height="60" as="geometry" />
        </mxCell>
        <mxCell id="zqrA5iGKFldwItwEDeDW-63" value="" style="edgeStyle=none;rounded=0;orthogonalLoop=1;jettySize=auto;html=1;fontSize=15;fontColor=#000;startArrow=classic;startFill=1;strokeWidth=2;fillColor=#d5e8d4;strokeColor=#82b366;" parent="1" source="zqrA5iGKFldwItwEDeDW-64" target="zqrA5iGKFldwItwEDeDW-62" edge="1">
          <mxGeometry relative="1" as="geometry" />
        </mxCell>
        <mxCell id="zqrA5iGKFldwItwEDeDW-64" value="&lt;font color=&quot;#000000&quot; style=&quot;font-size: 15px;&quot;&gt;MySQL B&lt;br style=&quot;font-size: 15px;&quot;&gt;&lt;/font&gt;" style="rounded=1;whiteSpace=wrap;html=1;fontStyle=0;fontSize=15;fillColor=#d5e8d4;strokeColor=#82b366;" parent="1" vertex="1">
          <mxGeometry x="32.47000000000003" y="748" width="120" height="60" as="geometry" />
        </mxCell>
        <mxCell id="zqrA5iGKFldwItwEDeDW-65" value="select real_query" style="text;html=1;strokeColor=none;fillColor=none;align=center;verticalAlign=middle;whiteSpace=wrap;rounded=0;dashed=1;fontSize=15;" parent="1" vertex="1">
          <mxGeometry x="-132.52999999999997" y="708" width="155" height="30" as="geometry" />
        </mxCell>
        <mxCell id="zqrA5iGKFldwItwEDeDW-66" value="relay log&lt;br&gt;trx 1" style="rounded=1;whiteSpace=wrap;html=1;dashed=1;fontSize=15;fontColor=#000;strokeColor=default;strokeWidth=2;" parent="1" vertex="1">
          <mxGeometry x="10.970000000000027" y="821" width="82" height="70" as="geometry" />
        </mxCell>
        <mxCell id="zqrA5iGKFldwItwEDeDW-67" value="binlog" style="rounded=1;whiteSpace=wrap;html=1;dashed=1;fontSize=15;fontColor=#000;strokeColor=default;strokeWidth=2;" parent="1" vertex="1">
          <mxGeometry x="100.97000000000003" y="821" width="82" height="50" as="geometry" />
        </mxCell>
        <mxCell id="zqrA5iGKFldwItwEDeDW-68" style="rounded=0;orthogonalLoop=1;jettySize=auto;html=1;fontSize=15;fontColor=#000;startArrow=none;startFill=0;endArrow=classic;endFill=1;strokeWidth=1;" parent="1" source="G3FPjAI_tkEvGzXo53xU-15" target="zqrA5iGKFldwItwEDeDW-58" edge="1">
          <mxGeometry relative="1" as="geometry" />
        </mxCell>
        <mxCell id="G3FPjAI_tkEvGzXo53xU-1" value="状态 1" style="text;html=1;strokeColor=none;fillColor=none;align=center;verticalAlign=middle;whiteSpace=wrap;rounded=0;fontFamily=Verdana;fontStyle=1;fontSize=14;" parent="1" vertex="1">
          <mxGeometry x="-517.03" y="-32" width="60" height="30" as="geometry" />
        </mxCell>
        <mxCell id="G3FPjAI_tkEvGzXo53xU-2" value="状态 2" style="text;html=1;strokeColor=none;fillColor=none;align=center;verticalAlign=middle;whiteSpace=wrap;rounded=0;fontFamily=Verdana;fontStyle=1;fontSize=14;" parent="1" vertex="1">
          <mxGeometry x="207.97000000000003" y="-32" width="60" height="30" as="geometry" />
        </mxCell>
        <mxCell id="G3FPjAI_tkEvGzXo53xU-4" value="状态 3" style="text;html=1;strokeColor=none;fillColor=none;align=center;verticalAlign=middle;whiteSpace=wrap;rounded=0;fontFamily=Verdana;fontStyle=1;fontSize=14;" parent="1" vertex="1">
          <mxGeometry x="-522.03" y="295.63" width="60" height="30" as="geometry" />
        </mxCell>
        <mxCell id="G3FPjAI_tkEvGzXo53xU-5" value="状态 3‘" style="text;html=1;strokeColor=none;fillColor=none;align=center;verticalAlign=middle;whiteSpace=wrap;rounded=0;fontFamily=Verdana;fontStyle=1;fontSize=14;" parent="1" vertex="1">
          <mxGeometry x="-173.02999999999997" y="626" width="60" height="30" as="geometry" />
        </mxCell>
        <mxCell id="zqrA5iGKFldwItwEDeDW-69" value="是" style="text;html=1;align=center;verticalAlign=middle;resizable=0;points=[];autosize=1;fontSize=15;fillColor=none;fontColor=#333333;strokeColor=none;" parent="1" vertex="1">
          <mxGeometry x="-188.52999999999997" y="373" width="30" height="20" as="geometry" />
        </mxCell>
        <mxCell id="G3FPjAI_tkEvGzXo53xU-14" value="" style="edgeStyle=none;rounded=0;orthogonalLoop=1;jettySize=auto;html=1;fontSize=15;fontColor=#000;startArrow=none;startFill=0;endArrow=none;endFill=1;strokeWidth=1;" parent="1" source="zqrA5iGKFldwItwEDeDW-53" target="zqrA5iGKFldwItwEDeDW-69" edge="1">
          <mxGeometry relative="1" as="geometry">
            <mxPoint x="-117.13648644741852" y="385.066609130751" as="sourcePoint" />
            <mxPoint x="-224.02999999999997" y="386.7671052631579" as="targetPoint" />
          </mxGeometry>
        </mxCell>
        <mxCell id="G3FPjAI_tkEvGzXo53xU-15" value="否" style="text;html=1;align=center;verticalAlign=middle;resizable=0;points=[];autosize=1;fontSize=15;fillColor=none;fontColor=#333333;strokeColor=none;" parent="1" vertex="1">
          <mxGeometry x="-12.029999999999973" y="513" width="30" height="20" as="geometry" />
        </mxCell>
        <mxCell id="G3FPjAI_tkEvGzXo53xU-16" value="" style="rounded=0;orthogonalLoop=1;jettySize=auto;html=1;fontSize=15;fontColor=#000;startArrow=none;startFill=0;endArrow=none;endFill=1;strokeWidth=1;" parent="1" source="zqrA5iGKFldwItwEDeDW-53" target="G3FPjAI_tkEvGzXo53xU-15" edge="1">
          <mxGeometry relative="1" as="geometry">
            <mxPoint x="-7.029999999999973" y="438" as="sourcePoint" />
            <mxPoint x="-7.029999999999973" y="638" as="targetPoint" />
          </mxGeometry>
        </mxCell>
        <mxCell id="lCQ43jmw5x8bFt2D_N49-2" value="gtid1" style="text;html=1;strokeColor=none;fillColor=none;align=center;verticalAlign=middle;whiteSpace=wrap;rounded=0;fontColor=#FF3333;" vertex="1" parent="1">
          <mxGeometry x="-404.03" y="53" width="60" height="30" as="geometry" />
        </mxCell>
      </root>
    </mxGraphModel>
  </diagram>
</mxfile>
